<svg width="20" height="22" viewBox="0 0 20 22" fill="none" xmlns="http://www.w3.org/2000/svg">
<path d="M6 16.4H14M9.0177 2.16402L2.23539 7.43915C1.78202 7.79177 1.55534 7.96808 1.39203 8.18888C1.24737 8.38447 1.1396 8.60481 1.07403 8.83908C1 9.10354 1 9.39072 1 9.96508V17.2C1 18.3201 1 18.8802 1.21799 19.308C1.40973 19.6843 1.71569 19.9903 2.09202 20.182C2.51984 20.4 3.07989 20.4 4.2 20.4H15.8C16.9201 20.4 17.4802 20.4 17.908 20.182C18.2843 19.9903 18.5903 19.6843 18.782 19.308C19 18.8802 19 18.3201 19 17.2V9.96508C19 9.39072 19 9.10354 18.926 8.83908C18.8604 8.60481 18.7526 8.38447 18.608 8.18888C18.4447 7.96808 18.218 7.79177 17.7646 7.43915L10.9823 2.16402C10.631 1.89077 10.4553 1.75414 10.2613 1.70163C10.0902 1.65529 9.9098 1.65529 9.73865 1.70163C9.54468 1.75414 9.36902 1.89077 9.0177 2.16402Z" stroke="white" stroke-width="2" stroke-linecap="round" stroke-linejoin="round"/>
</svg>
