<svg width="20" height="23" viewBox="0 0 20 23" fill="none" xmlns="http://www.w3.org/2000/svg">
<path d="M7.39504 19.1712L7.97949 20.4856C8.15323 20.8769 8.43676 21.2093 8.79571 21.4426C9.15466 21.676 9.5736 21.8001 10.0017 21.8C10.4298 21.8001 10.8488 21.676 11.2077 21.4426C11.5667 21.2093 11.8502 20.8769 12.0239 20.4856L12.6084 19.1712C12.8164 18.7048 13.1664 18.3159 13.6084 18.0601C14.0532 17.8035 14.5677 17.6942 15.0784 17.7478L16.5084 17.9C16.934 17.9451 17.3636 17.8656 17.7451 17.6714C18.1265 17.4771 18.4434 17.1764 18.6573 16.8056C18.8714 16.4351 18.9735 16.0103 18.951 15.5829C18.9285 15.1555 18.7825 14.7439 18.5306 14.3978L17.6839 13.2345C17.3825 12.8172 17.2214 12.3149 17.2239 11.8C17.2238 11.2866 17.3864 10.7864 17.6884 10.3712L18.535 9.20783C18.7869 8.8618 18.933 8.45012 18.9554 8.02272C18.9779 7.59533 18.8759 7.17059 18.6617 6.80005C18.4478 6.42928 18.1309 6.12854 17.7495 5.93428C17.3681 5.74001 16.9385 5.66058 16.5128 5.7056L15.0828 5.85783C14.5722 5.91146 14.0576 5.80217 13.6128 5.5456C13.1699 5.2883 12.8199 4.89741 12.6128 4.42894L12.0239 3.11449C11.8502 2.72322 11.5667 2.39076 11.2077 2.15745C10.8488 1.92413 10.4298 1.79998 10.0017 1.80005C9.5736 1.79998 9.15466 1.92413 8.79571 2.15745C8.43676 2.39076 8.15323 2.72322 7.97949 3.11449L7.39504 4.42894C7.18797 4.89741 6.83792 5.2883 6.39504 5.5456C5.95026 5.80217 5.43571 5.91146 4.92504 5.85783L3.4906 5.7056C3.06493 5.66058 2.63534 5.74001 2.25391 5.93428C1.87249 6.12854 1.55561 6.42928 1.34171 6.80005C1.12753 7.17059 1.02549 7.59533 1.04798 8.02272C1.07046 8.45012 1.2165 8.8618 1.46838 9.20783L2.31504 10.3712C2.61698 10.7864 2.77958 11.2866 2.77949 11.8C2.77958 12.3135 2.61698 12.8137 2.31504 13.2289L1.46838 14.3923C1.2165 14.7383 1.07046 15.15 1.04798 15.5774C1.02549 16.0048 1.12753 16.4295 1.34171 16.8C1.55582 17.1706 1.87274 17.4712 2.25411 17.6654C2.63548 17.8597 3.06496 17.9392 3.4906 17.8945L4.9206 17.7423C5.43127 17.6886 5.94581 17.7979 6.3906 18.0545C6.83513 18.3111 7.18681 18.702 7.39504 19.1712Z" stroke="#D0D5DD" stroke-width="2" stroke-linecap="round" stroke-linejoin="round"/>
<path d="M9.99992 14.8C11.6568 14.8 12.9999 13.4569 12.9999 11.8C12.9999 10.1432 11.6568 8.80005 9.99992 8.80005C8.34307 8.80005 6.99992 10.1432 6.99992 11.8C6.99992 13.4569 8.34307 14.8 9.99992 14.8Z" stroke="#D0D5DD" stroke-width="2" stroke-linecap="round" stroke-linejoin="round"/>
</svg>
