<svg width="22" height="23" viewBox="0 0 22 23" fill="none" xmlns="http://www.w3.org/2000/svg">
<path d="M1 11.2L10.6422 16.0211C10.7734 16.0867 10.839 16.1195 10.9078 16.1324C10.9687 16.1439 11.0313 16.1439 11.0922 16.1324C11.161 16.1195 11.2266 16.0867 11.3578 16.0211L21 11.2M1 16.2L10.6422 21.0211C10.7734 21.0867 10.839 21.1195 10.9078 21.1324C10.9687 21.1439 11.0313 21.1439 11.0922 21.1324C11.161 21.1195 11.2266 21.0867 11.3578 21.0211L21 16.2M1 6.20002L10.6422 1.3789C10.7734 1.31331 10.839 1.28052 10.9078 1.26761C10.9687 1.25618 11.0313 1.25618 11.0922 1.26761C11.161 1.28052 11.2266 1.31331 11.3578 1.3789L21 6.20002L11.3578 11.0211C11.2266 11.0867 11.161 11.1195 11.0922 11.1324C11.0313 11.1439 10.9687 11.1439 10.9078 11.1324C10.839 11.1195 10.7734 11.0867 10.6422 11.0211L1 6.20002Z" stroke="#D0D5DD" stroke-width="2" stroke-linecap="round" stroke-linejoin="round"/>
</svg>
